<?xml version="1.0" encoding="UTF-8" standalone="no"?>
<svg
   version="1.1"
   width="48"
   height="48"
   id="svg3049"
   sodipodi:docname="com.github.ryonakano.konbucase.svg"
   inkscape:version="1.2.1 (9c6d41e410, 2022-07-14)"
   inkscape:export-filename="/home/fatih/Documents/Github Stuff/konbucase/data/icons/128/com (copy).github.ryonakano.konbucase.png"
   inkscape:export-xdpi="96"
   inkscape:export-ydpi="96"
   xmlns:inkscape="http://www.inkscape.org/namespaces/inkscape"
   xmlns:sodipodi="http://sodipodi.sourceforge.net/DTD/sodipodi-0.dtd"
   xmlns:xlink="http://www.w3.org/1999/xlink"
   xmlns="http://www.w3.org/2000/svg"
   xmlns:svg="http://www.w3.org/2000/svg"
   xmlns:rdf="http://www.w3.org/1999/02/22-rdf-syntax-ns#"
   xmlns:cc="http://creativecommons.org/ns#"
   xmlns:dc="http://purl.org/dc/elements/1.1/">
  <sodipodi:namedview
     pagecolor="#ffffff"
     bordercolor="#666666"
     borderopacity="1"
     objecttolerance="10"
     gridtolerance="10"
     guidetolerance="10"
     inkscape:pageopacity="0"
     inkscape:pageshadow="2"
     inkscape:window-width="1920"
     inkscape:window-height="1019"
     id="namedview48"
     showgrid="true"
     inkscape:zoom="17.020833"
     inkscape:cx="22.736843"
     inkscape:cy="24"
     inkscape:window-x="0"
     inkscape:window-y="30"
     inkscape:window-maximized="1"
     inkscape:current-layer="layer2"
     inkscape:document-rotation="0"
     inkscape:snap-to-guides="false"
     inkscape:snap-grids="false"
     inkscape:object-paths="true"
     inkscape:snap-intersection-paths="true"
     inkscape:snap-smooth-nodes="true"
     inkscape:snap-page="true"
     inkscape:showpageshadow="2"
     inkscape:pagecheckerboard="0"
     inkscape:deskcolor="#d1d1d1">
    <inkscape:grid
       type="xygrid"
       id="grid860"
       empspacing="2"
       color="#ffef3f"
       opacity="0.2745098"
       empcolor="#ffef3f"
       empopacity="0.2745098"
       dotted="true"
       spacingx="0.5"
       spacingy="0.5"
       enabled="false"
       originx="0"
       originy="0" />
  </sodipodi:namedview>
  <defs
     id="defs3051">
    <inkscape:path-effect
       update_on_knot_move="true"
       attempt_force_join="true"
       miter_limit="4"
       offset="-1"
       unit="px"
       linejoin_type="miter"
       lpeversion="1.2"
       is_visible="true"
       id="path-effect1027"
       effect="offset" />
    <inkscape:path-effect
       hide_knots="false"
       only_selected="false"
       apply_with_radius="true"
       apply_no_radius="true"
       use_knot_distance="true"
       flexible="false"
       chamfer_steps="1"
       radius="0"
       mode="F"
       method="auto"
       unit="px"
       satellites_param="F,0,1,1,0,4.2232513,0,1 @ F,0,0,1,0,4.2232513,0,1 @ F,0,1,1,0,4.2232513,0,1"
       lpeversion="1"
       is_visible="true"
       id="path-effect1152"
       effect="fillet_chamfer"
       nodesatellites_param="F,0,1,1,0,4.2232513,0,1 @ F,0,0,1,0,4.2232513,0,1 @ F,0,1,1,0,4.2232513,0,1" />
    <inkscape:path-effect
       hide_knots="false"
       only_selected="false"
       apply_with_radius="true"
       apply_no_radius="true"
       use_knot_distance="true"
       flexible="false"
       chamfer_steps="1"
       radius="0"
       mode="F"
       method="auto"
       unit="px"
       satellites_param="F,0,1,1,0,4.2232513,0,1 @ F,0,0,1,0,4.2232513,0,1 @ F,0,1,1,0,4.2232513,0,1"
       lpeversion="1"
       is_visible="true"
       id="path-effect1146"
       effect="fillet_chamfer"
       nodesatellites_param="F,0,1,1,0,4.2232513,0,1 @ F,0,0,1,0,4.2232513,0,1 @ F,0,1,1,0,4.2232513,0,1" />
    <inkscape:path-effect
       effect="fillet_chamfer"
       id="path-effect1138"
       is_visible="true"
       lpeversion="1"
       satellites_param="F,0,1,1,0,4.2232513,0,1 @ F,0,0,1,0,4.2232513,0,1 @ F,0,1,1,0,4.2232513,0,1"
       unit="px"
       method="auto"
       mode="F"
       radius="0"
       chamfer_steps="1"
       flexible="false"
       use_knot_distance="true"
       apply_no_radius="true"
       apply_with_radius="true"
       only_selected="false"
       hide_knots="false"
       nodesatellites_param="F,0,1,1,0,4.2232513,0,1 @ F,0,0,1,0,4.2232513,0,1 @ F,0,1,1,0,4.2232513,0,1" />
    <inkscape:path-effect
       effect="fillet_chamfer"
       id="path-effect1136"
       is_visible="true"
       lpeversion="1"
       satellites_param="F,0,0,1,0,0,0,1 @ F,0,0,1,0,0,0,1 @ F,0,0,1,0,0,0,1"
       unit="px"
       method="auto"
       mode="F"
       radius="0"
       chamfer_steps="1"
       flexible="false"
       use_knot_distance="true"
       apply_no_radius="true"
       apply_with_radius="true"
       only_selected="false"
       hide_knots="false"
       nodesatellites_param="F,0,0,1,0,0,0,1 @ F,0,0,1,0,0,0,1 @ F,0,0,1,0,0,0,1" />
    <inkscape:path-effect
       effect="fillet_chamfer"
       id="path-effect1131"
       is_visible="true"
       lpeversion="1"
       satellites_param="F,0,0,1,0,0,0,1 @ F,0,0,1,0,0,0,1 @ F,0,0,1,0,0,0,1 @ F,0,0,1,0,0,0,1 @ F,0,0,1,0,0,0,1 @ F,0,0,1,0,0,0,1"
       unit="px"
       method="auto"
       mode="F"
       radius="0"
       chamfer_steps="1"
       flexible="false"
       use_knot_distance="true"
       apply_no_radius="true"
       apply_with_radius="true"
       only_selected="false"
       hide_knots="false"
       nodesatellites_param="F,0,0,1,0,0,0,1 @ F,0,0,1,0,0,0,1 @ F,0,0,1,0,0,0,1 @ F,0,0,1,0,0,0,1 @ F,0,0,1,0,0,0,1 @ F,0,0,1,0,0,0,1" />
    <marker
       inkscape:stockid="Arrow2Send"
       orient="auto"
       refY="0"
       refX="0"
       id="marker6817"
       style="overflow:visible"
       inkscape:isstock="true">
      <path
         id="path6815"
         style="fill:#fafafa;fill-opacity:1;fill-rule:evenodd;stroke:#fafafa;stroke-width:0.625;stroke-linejoin:round;stroke-opacity:1"
         d="M 8.7185878,4.0337352 -2.2072895,0.01601326 8.7185884,-4.0017078 c -1.7454984,2.3720609 -1.7354408,5.6174519 -6e-7,8.035443 z"
         transform="matrix(-0.3,0,0,-0.3,0.69,0)" />
    </marker>
    <marker
       inkscape:stockid="Arrow1Send"
       orient="auto"
       refY="0"
       refX="0"
       id="Arrow1Send"
       style="overflow:visible"
       inkscape:isstock="true">
      <path
         id="path4864"
         d="M 0,0 5,-5 -12.5,0 5,5 Z"
         style="fill:#000000;fill-opacity:1;fill-rule:evenodd;stroke:#000000;stroke-width:1pt;stroke-opacity:1"
         transform="matrix(-0.2,0,0,-0.2,-1.2,0)" />
    </marker>
    <marker
       inkscape:stockid="TriangleInS"
       orient="auto"
       refY="0"
       refX="0"
       id="TriangleInS"
       style="overflow:visible"
       inkscape:isstock="true">
      <path
         id="path4988"
         d="M 5.77,0 -2.88,5 V -5 Z"
         style="fill:#000000;fill-opacity:1;fill-rule:evenodd;stroke:#000000;stroke-width:1pt;stroke-opacity:1"
         transform="scale(-0.2)" />
    </marker>
    <marker
       inkscape:stockid="DiamondSend"
       orient="auto"
       refY="0"
       refX="0"
       id="DiamondSend"
       style="overflow:visible"
       inkscape:isstock="true">
      <path
         id="path4952"
         d="M 0,-7.0710768 -7.0710894,0 0,7.0710589 7.0710462,0 Z"
         style="fill:#000000;fill-opacity:1;fill-rule:evenodd;stroke:#000000;stroke-width:1pt;stroke-opacity:1"
         transform="matrix(0.2,0,0,0.2,-1.2,0)" />
    </marker>
    <marker
       inkscape:stockid="Arrow2Send"
       orient="auto"
       refY="0"
       refX="0"
       id="Arrow2Send"
       style="overflow:visible"
       inkscape:isstock="true">
      <path
         id="path4882"
         style="fill:#000000;fill-opacity:1;fill-rule:evenodd;stroke:#000000;stroke-width:0.625;stroke-linejoin:round;stroke-opacity:1"
         d="M 8.7185878,4.0337352 -2.2072895,0.01601326 8.7185884,-4.0017078 c -1.7454984,2.3720609 -1.7354408,5.6174519 -6e-7,8.035443 z"
         transform="matrix(-0.3,0,0,-0.3,0.69,0)" />
    </marker>
    <marker
       inkscape:stockid="Arrow2Mend"
       orient="auto"
       refY="0"
       refX="0"
       id="marker5311"
       style="overflow:visible"
       inkscape:isstock="true">
      <path
         id="path5309"
         style="fill:#000000;fill-opacity:1;fill-rule:evenodd;stroke:#000000;stroke-width:0.625;stroke-linejoin:round;stroke-opacity:1"
         d="M 8.7185878,4.0337352 -2.2072895,0.01601326 8.7185884,-4.0017078 c -1.7454984,2.3720609 -1.7354408,5.6174519 -6e-7,8.035443 z"
         transform="scale(-0.6)" />
    </marker>
    <marker
       inkscape:stockid="Arrow2Sstart"
       orient="auto"
       refY="0"
       refX="0"
       id="Arrow2Sstart"
       style="overflow:visible"
       inkscape:isstock="true">
      <path
         id="path4879"
         style="fill:#000000;fill-opacity:1;fill-rule:evenodd;stroke:#000000;stroke-width:0.625;stroke-linejoin:round;stroke-opacity:1"
         d="M 8.7185878,4.0337352 -2.2072895,0.01601326 8.7185884,-4.0017078 c -1.7454984,2.3720609 -1.7354408,5.6174519 -6e-7,8.035443 z"
         transform="matrix(0.3,0,0,0.3,-0.69,0)" />
    </marker>
    <marker
       inkscape:stockid="Arrow2Mend"
       orient="auto"
       refY="0"
       refX="0"
       id="Arrow2Mend"
       style="overflow:visible"
       inkscape:isstock="true">
      <path
         id="path4876"
         style="fill:#000000;fill-opacity:1;fill-rule:evenodd;stroke:#000000;stroke-width:0.625;stroke-linejoin:round;stroke-opacity:1"
         d="M 8.7185878,4.0337352 -2.2072895,0.01601326 8.7185884,-4.0017078 c -1.7454984,2.3720609 -1.7354408,5.6174519 -6e-7,8.035443 z"
         transform="scale(-0.6)" />
    </marker>
    <marker
       inkscape:stockid="Arrow2Lend"
       orient="auto"
       refY="0"
       refX="0"
       id="Arrow2Lend"
       style="overflow:visible"
       inkscape:isstock="true">
      <path
         id="path4870"
         style="fill:#000000;fill-opacity:1;fill-rule:evenodd;stroke:#000000;stroke-width:0.625;stroke-linejoin:round;stroke-opacity:1"
         d="M 8.7185878,4.0337352 -2.2072895,0.01601326 8.7185884,-4.0017078 c -1.7454984,2.3720609 -1.7354408,5.6174519 -6e-7,8.035443 z"
         transform="matrix(-1.1,0,0,-1.1,-1.1,0)" />
    </marker>
    <marker
       inkscape:stockid="Arrow1Lend"
       orient="auto"
       refY="0"
       refX="0"
       id="marker5145"
       style="overflow:visible"
       inkscape:isstock="true">
      <path
         id="path5143"
         d="M 0,0 5,-5 -12.5,0 5,5 Z"
         style="fill:#000000;fill-opacity:1;fill-rule:evenodd;stroke:#000000;stroke-width:1pt;stroke-opacity:1"
         transform="matrix(-0.8,0,0,-0.8,-10,0)" />
    </marker>
    <marker
       inkscape:stockid="Arrow1Lend"
       orient="auto"
       refY="0"
       refX="0"
       id="Arrow1Lend"
       style="overflow:visible"
       inkscape:isstock="true">
      <path
         id="path4852"
         d="M 0,0 5,-5 -12.5,0 5,5 Z"
         style="fill:#000000;fill-opacity:1;fill-rule:evenodd;stroke:#000000;stroke-width:1pt;stroke-opacity:1"
         transform="matrix(-0.8,0,0,-0.8,-10,0)" />
    </marker>
    <linearGradient
       id="linearGradient897">
      <stop
         id="stop893"
         style="stop-color:#f9c440;stop-opacity:1"
         offset="0" />
      <stop
         offset="0.54600441"
         style="stop-color:#e8ac2c;stop-opacity:1;"
         id="stop1015" />
      <stop
         id="stop895"
         style="stop-color:#d48e15;stop-opacity:1"
         offset="1" />
    </linearGradient>
    <linearGradient
       id="linearGradient3924">
      <stop
         id="stop3926"
         style="stop-color:#ffffff;stop-opacity:1"
         offset="0" />
      <stop
         id="stop3928"
         style="stop-color:#ffffff;stop-opacity:0.23529412"
         offset="0.06316455" />
      <stop
         id="stop3930"
         style="stop-color:#ffffff;stop-opacity:0.15686275"
         offset="0.95056331" />
      <stop
         id="stop3932"
         style="stop-color:#ffffff;stop-opacity:0.39215687"
         offset="1" />
    </linearGradient>
    <linearGradient
       id="linearGradient3688-166-749-5">
      <stop
         id="stop2883-0"
         style="stop-color:#181818;stop-opacity:1"
         offset="0" />
      <stop
         id="stop2885-5"
         style="stop-color:#181818;stop-opacity:0"
         offset="1" />
    </linearGradient>
    <linearGradient
       id="linearGradient3688-464-309-8">
      <stop
         id="stop2889-9"
         style="stop-color:#181818;stop-opacity:1"
         offset="0" />
      <stop
         id="stop2891-4"
         style="stop-color:#181818;stop-opacity:0"
         offset="1" />
    </linearGradient>
    <linearGradient
       id="linearGradient3702-501-757-0">
      <stop
         id="stop2895-0"
         style="stop-color:#181818;stop-opacity:0"
         offset="0" />
      <stop
         id="stop2897-2"
         style="stop-color:#181818;stop-opacity:1"
         offset="0.5" />
      <stop
         id="stop2899-6"
         style="stop-color:#181818;stop-opacity:0"
         offset="1" />
    </linearGradient>
    <linearGradient
       id="linearGradient3811">
      <stop
         id="stop3813"
         style="stop-color:#000000;stop-opacity:1"
         offset="0" />
      <stop
         id="stop3815"
         style="stop-color:#000000;stop-opacity:0"
         offset="1" />
    </linearGradient>
    <radialGradient
       xlink:href="#linearGradient3688-166-749-5"
       id="radialGradient3946"
       gradientUnits="userSpaceOnUse"
       gradientTransform="matrix(1.9740983,0,0,1.4,28.210531,-17.402531)"
       cx="4.9929786"
       cy="43.5"
       fx="4.9929786"
       fy="43.5"
       r="2.5" />
    <radialGradient
       xlink:href="#linearGradient3688-464-309-8"
       id="radialGradient3948"
       gradientUnits="userSpaceOnUse"
       gradientTransform="matrix(1.9740983,0,0,1.4,-19.789474,-104.39747)"
       cx="4.9929786"
       cy="43.5"
       fx="4.9929786"
       fy="43.5"
       r="2.5" />
    <linearGradient
       xlink:href="#linearGradient3702-501-757-0"
       id="linearGradient3950"
       gradientUnits="userSpaceOnUse"
       x1="25.058096"
       y1="47.027729"
       x2="25.058096"
       y2="39.999443"
       gradientTransform="matrix(1.005291,0,0,1,-0.12698188,-0.00253193)" />
    <linearGradient
       xlink:href="#linearGradient3924"
       id="linearGradient3965"
       gradientUnits="userSpaceOnUse"
       gradientTransform="matrix(1.0335575,0,0,1.033599,-0.80537195,80.193192)"
       x1="23.99999"
       y1="4.999989"
       x2="23.99999"
       y2="43" />
    <radialGradient
       xlink:href="#linearGradient3811"
       id="radialGradient3976"
       gradientUnits="userSpaceOnUse"
       gradientTransform="matrix(0.58364715,0,0,0.06367061,26.351383,118.29934)"
       cx="-4.0287771"
       cy="93.467628"
       fx="-4.0287771"
       fy="93.467628"
       r="35.338131" />
    <linearGradient
       xlink:href="#linearGradient897"
       id="linearGradient891"
       x1="66.534019"
       y1="8.3008251"
       x2="66.071373"
       y2="166.23401"
       gradientUnits="userSpaceOnUse"
       gradientTransform="matrix(0.38834951,0,0,0.38834951,-0.85436448,78.979887)" />
    <linearGradient
       id="linearGradient5803">
      <stop
         id="stop5805"
         style="stop-color:#fff5ef;stop-opacity:1"
         offset="0" />
      <stop
         id="stop5807"
         style="stop-color:#fef8dd;stop-opacity:1"
         offset="1" />
    </linearGradient>
    <linearGradient
       x1="167.98311"
       y1="8.50811"
       x2="167.98311"
       y2="54.780239"
       id="linearGradient5228-5"
       xlink:href="#linearGradient5803"
       gradientUnits="userSpaceOnUse"
       gradientTransform="matrix(1.832495,0,0,1.8439152,-232.17581,8.558593)" />
    <marker
       inkscape:stockid="Arrow2Send"
       orient="auto"
       refY="0"
       refX="0"
       id="marker6817-8"
       style="overflow:visible"
       inkscape:isstock="true">
      <path
         inkscape:connector-curvature="0"
         id="path6815-5"
         style="fill:#fafafa;fill-opacity:1;fill-rule:evenodd;stroke:#fafafa;stroke-width:0.625;stroke-linejoin:round;stroke-opacity:1"
         d="M 8.7185878,4.0337352 -2.2072895,0.01601326 8.7185884,-4.0017078 c -1.7454984,2.3720609 -1.7354408,5.6174519 -6e-7,8.035443 z"
         transform="matrix(-0.3,0,0,-0.3,0.69,0)" />
    </marker>
    <linearGradient
       y2="43"
       x2="23.99999"
       y1="4.999989"
       x1="23.99999"
       gradientTransform="matrix(1.0236487,0,0,1.0236487,-5.1300663,-5.1300547)"
       gradientUnits="userSpaceOnUse"
       id="linearGradient3965-3"
       xlink:href="#linearGradient3924" />
    <radialGradient
       cx="4.9929786"
       cy="43.5"
       r="2.5"
       fx="4.9929786"
       fy="43.5"
       id="radialGradient3013-6-5-76"
       xlink:href="#linearGradient3688-166-749-5"
       gradientUnits="userSpaceOnUse"
       gradientTransform="matrix(2.003784,0,0,0.89999994,49.640517,3.7973709)" />
    <radialGradient
       cx="4.9929786"
       cy="43.5"
       r="2.5"
       fx="4.9929786"
       fy="43.5"
       id="radialGradient3015-1-6-9"
       xlink:href="#linearGradient3688-166-749-5"
       gradientUnits="userSpaceOnUse"
       gradientTransform="matrix(2.003784,0,0,0.89999994,-37.664257,-82.097365)" />
    <linearGradient
       xlink:href="#linearGradient3702-501-757-0"
       id="linearGradient1191"
       gradientUnits="userSpaceOnUse"
       x1="25.058096"
       y1="47.027729"
       x2="25.058096"
       y2="39.999443"
       gradientTransform="matrix(1.1428571,0,0,0.6428571,16.223818,14.983084)" />
  </defs>
  <metadata
     id="metadata3054">
    <rdf:RDF>
      <cc:Work
         rdf:about="">
        <dc:format>image/svg+xml</dc:format>
        <dc:type
           rdf:resource="http://purl.org/dc/dcmitype/StillImage" />
      </cc:Work>
    </rdf:RDF>
  </metadata>
  <g
     inkscape:groupmode="layer"
     id="layer1"
     inkscape:label="Layer1"
     transform="translate(-19.652388,1.0526314)"
     sodipodi:insensitive="true">
    <rect
       style="opacity:0.4;fill:url(#radialGradient3013-6-5-76);fill-opacity:1;stroke:none;stroke-width:0.862764"
       id="rect2801-3-7-7-2"
       y="40.697369"
       x="59.652386"
       height="4.4999995"
       width="5" />
    <rect
       style="opacity:0.4;fill:url(#radialGradient3015-1-6-9);fill-opacity:1;stroke:none;stroke-width:0.862764"
       id="rect3696-6-3-5-0"
       transform="scale(-1)"
       y="-45.197369"
       x="-27.652388"
       height="4.4999995"
       width="5" />
    <rect
       style="opacity:0.4;fill:url(#linearGradient1191);fill-opacity:1;stroke:none;stroke-width:0.862764"
       id="rect3700-4-6-9-6"
       y="40.697369"
       x="27.652388"
       height="4.5"
       width="32" />
  </g>
  <g
     inkscape:groupmode="layer"
     id="layer2"
     inkscape:label="Layer 2"
     style="display:inline"
     transform="translate(0,-80)">
    <path
       id="path1195"
       style="display:inline;overflow:visible;fill:url(#linearGradient891);stroke-width:1;marker:none;enable-background:accumulate;stroke-dasharray:none"
       d="M 8.6462669,85 H 39.353733 C 41.927765,85 44,87.007 44,89.5 v 31 c 0,2.493 -2.072235,4.5 -4.646267,4.5 H 8.6462669 C 6.0722351,125 4,122.993 4,120.5 v -31 C 4,87.007 6.0722351,85 8.6462669,85 Z" />
    <path
       style="color:#000000;fill:#ad5f00;stroke-linecap:round;stroke-linejoin:round;-inkscape-stroke:none;opacity:0.5"
       d="M 8.5,85 C 6.0156519,85 4,87.015652 4,89.5 v 31 c 0,2.48435 2.0156519,4.5 4.5,4.5 h 31 c 2.484348,0 4.5,-2.01565 4.5,-4.5 v -31 C 44,87.015652 41.984348,85 39.5,85 Z m 0,1 h 31 c 1.947647,0 3.5,1.552353 3.5,3.5 v 31 c 0,1.94765 -1.552353,3.5 -3.5,3.5 H 8.5 C 6.5523525,124 5,122.44765 5,120.5 v -31 C 5,87.552353 6.5523525,86 8.5,86 Z"
       id="rect5505-21-3-1" />
    <path
       id="rect1013"
       d="m 8.5,86.5 h 31 c 1.662525,0 3,1.337475 3,3 v 31 c 0,1.66253 -1.337475,3 -3,3 h -31 c -1.6625253,0 -3,-1.33747 -3,-3 v -31 c 0,-1.662525 1.3374747,-3 3,-3 z"
       style="color:#000000;font-variation-settings:normal;display:inline;overflow:visible;visibility:visible;opacity:0.5;fill:none;fill-opacity:1;stroke:url(#linearGradient3965);stroke-width:1.00005;stroke-linecap:round;stroke-linejoin:round;stroke-miterlimit:4;stroke-dasharray:none;stroke-dashoffset:0;stroke-opacity:1;marker:none;enable-background:accumulate;stop-color:#000000;stop-opacity:1" />
  </g>
  <g
     inkscape:groupmode="layer"
     id="layer3"
     inkscape:label="Layer 3"
     style="display:inline"
     transform="translate(0,-80)">
    <path
       d="m 21.901105,120.487 a 1.5,1.5 0 0 0 1.5,-1.5 1.5,1.5 0 0 0 -1.5,-1.5 c -2.584179,0 -4.65205,-2.02995 -4.721924,-4.59595 h 2.934815 a 0.70250422,0.70250422 0 0 0 0.520752,-1.17407 l -3.782226,-4.177 a 1.4339089,1.4339089 0 0 0 -2.125487,0 l -3.782227,4.177 a 0.70250441,0.70250441 0 0 0 0.520751,1.17407 h 2.710694 c 0.07168,4.18959 3.519003,7.59595 7.724852,7.59595 z"
       style="color:#000000;font-style:normal;font-variant:normal;font-weight:normal;font-stretch:normal;font-size:medium;line-height:normal;font-family:sans-serif;font-variant-ligatures:normal;font-variant-position:normal;font-variant-caps:normal;font-variant-numeric:normal;font-variant-alternates:normal;font-variant-east-asian:normal;font-feature-settings:normal;font-variation-settings:normal;text-indent:0;text-align:start;text-decoration:none;text-decoration-line:none;text-decoration-style:solid;text-decoration-color:#000000;letter-spacing:normal;word-spacing:normal;text-transform:none;writing-mode:lr-tb;direction:ltr;text-orientation:mixed;dominant-baseline:auto;baseline-shift:baseline;text-anchor:start;white-space:normal;shape-padding:0;shape-margin:0;inline-size:0;clip-rule:nonzero;display:inline;overflow:visible;visibility:visible;opacity:1;isolation:auto;mix-blend-mode:normal;color-interpolation:sRGB;color-interpolation-filters:linearRGB;solid-color:#000000;solid-opacity:1;vector-effect:none;fill:#000000;fill-opacity:0.15;fill-rule:nonzero;stroke:#000000;stroke-width:0.999997;stroke-linecap:round;stroke-linejoin:round;stroke-miterlimit:4;stroke-dasharray:none;stroke-dashoffset:0;stroke-opacity:0.07;color-rendering:auto;image-rendering:auto;shape-rendering:auto;text-rendering:auto;enable-background:accumulate;stop-color:#000000;stop-opacity:1"
       id="path1170" />
    <path
       id="path1157"
       style="color:#000000;font-style:normal;font-variant:normal;font-weight:normal;font-stretch:normal;font-size:medium;line-height:normal;font-family:sans-serif;font-variant-ligatures:normal;font-variant-position:normal;font-variant-caps:normal;font-variant-numeric:normal;font-variant-alternates:normal;font-variant-east-asian:normal;font-feature-settings:normal;font-variation-settings:normal;text-indent:0;text-align:start;text-decoration:none;text-decoration-line:none;text-decoration-style:solid;text-decoration-color:#000000;letter-spacing:normal;word-spacing:normal;text-transform:none;writing-mode:lr-tb;direction:ltr;text-orientation:mixed;dominant-baseline:auto;baseline-shift:baseline;text-anchor:start;white-space:normal;shape-padding:0;shape-margin:0;inline-size:0;clip-rule:nonzero;display:inline;overflow:visible;visibility:visible;opacity:1;isolation:auto;mix-blend-mode:normal;color-interpolation:sRGB;color-interpolation-filters:linearRGB;solid-color:#000000;solid-opacity:1;vector-effect:none;fill:#000000;fill-opacity:0.15;fill-rule:nonzero;stroke:#000000;stroke-width:0.999997;stroke-linecap:round;stroke-linejoin:round;stroke-miterlimit:4;stroke-dasharray:none;stroke-dashoffset:0;stroke-opacity:0.07;color-rendering:auto;image-rendering:auto;shape-rendering:auto;text-rendering:auto;enable-background:accumulate;stop-color:#000000;stop-opacity:1"
       d="m 26.491178,93.35515 a 1.5,1.5 0 0 0 -1.5,1.5 1.5,1.5 0 0 0 1.5,1.5 c 2.584179,0 4.65205,2.029948 4.721924,4.59595 h -2.934815 a 0.70250422,0.70250422 0 0 0 -0.520752,1.17407 l 3.782225,4.177 a 1.4339089,1.4339089 0 0 0 2.125489,0 l 3.782226,-4.177 a 0.70250441,0.70250441 0 0 0 -0.520751,-1.17407 h -2.710693 c -0.07168,-4.189583 -3.519004,-7.59595 -7.724853,-7.59595 z" />
    <g
       id="text4038-6-0"
       style="font-style:normal;font-weight:normal;font-size:59.5569px;line-height:1.25;font-family:sans-serif;letter-spacing:0px;word-spacing:0px;opacity:0.07;fill:#000000;fill-opacity:1;stroke:#000000;stroke-width:3.97045;stroke-opacity:1"
       transform="matrix(0.37273689,0,0,0.37727685,-1.0810169,80.419001)"
       aria-label="A">
      <path
         inkscape:connector-curvature="0"
         id="path9750-7-9"
         style="font-style:normal;font-variant:normal;font-weight:bold;font-stretch:normal;font-size:50.6667px;font-family:Raleway;-inkscape-font-specification:'Raleway Bold';fill:#000000;fill-opacity:1;stroke:#000000;stroke-width:3.97045;stroke-opacity:1"
         d="m 42.765397,25.79038 h 6.181334 l 13.68,35.973334 h -7.194667 l -3.344,-8.968 H 39.52273 l -3.293333,8.968 H 29.03473 Z m 8.056,22.090667 -4.965333,-14.136001 -5.168,14.136001 z" />
    </g>
    <g
       id="text4038-0-6-6"
       style="font-style:normal;font-weight:normal;font-size:59.5569px;line-height:1.25;font-family:sans-serif;letter-spacing:0px;word-spacing:0px;opacity:0.07;fill:#000000;fill-opacity:1;stroke:#000000;stroke-width:3.97045;stroke-opacity:1"
       transform="matrix(0.37273689,0,0,0.37727685,-1.0810169,80.418478)"
       aria-label="a">
      <path
         inkscape:connector-curvature="0"
         id="path9753-2-2"
         style="font-style:normal;font-variant:normal;font-weight:bold;font-stretch:normal;font-size:56px;font-family:Raleway;-inkscape-font-specification:'Raleway Bold';fill:#000000;fill-opacity:1;stroke:#000000;stroke-width:3.97045;stroke-opacity:1"
         d="m 85.834316,110.48529 q -2.128,0 -3.976,-0.672 -1.848,-0.728 -3.192,-1.96 -1.344,-1.288 -2.128,-2.968 -0.728,-1.68 -0.728,-3.696 0,-2.071997 0.896,-3.807997 0.952,-1.792 2.576,-3.024 1.68,-1.232 3.976,-1.904 2.296,-0.728 5.04,-0.728 1.96,0 3.808,0.336 1.904,0.336 3.36,0.952 v -1.68 q 0,-2.912 -1.68,-4.48 -1.624,-1.568 -4.872,-1.568 -2.352,0 -4.592,0.84 -2.24,0.84 -4.592,2.464 l -2.296,-4.76 q 5.656,-3.752 12.208,-3.752 6.328,0 9.8,3.136 3.528004,3.08 3.528004,8.96 v 9.127997 q 0,1.176 0.392,1.68 0.448,0.504 1.4,0.56 v 6.384 q -1.904,0.392 -3.304,0.392 -2.128004,0 -3.304004,-0.952 -1.12,-0.952 -1.4,-2.52 l -0.168,-1.624 q -1.96,2.576 -4.76,3.92 -2.8,1.344 -5.992,1.344 z m 2.128,-5.488 q 1.904,0 3.584,-0.672 1.736,-0.672 2.688,-1.792 1.232,-0.952 1.232,-2.128 v -3.359997 q -1.344,-0.504 -2.912,-0.784 -1.568,-0.336 -3.024,-0.336 -2.912,0 -4.76,1.344 -1.848,1.288 -1.848,3.303997 0,1.904 1.456,3.192 1.456,1.232 3.584,1.232 z" />
    </g>
    <g
       id="text4038-6"
       style="font-style:normal;font-weight:normal;font-size:59.5569px;line-height:1.25;font-family:sans-serif;letter-spacing:0px;word-spacing:0px;opacity:0.15;fill:#000000;fill-opacity:1;stroke:none;stroke-width:3.97045"
       transform="matrix(0.37273689,0,0,0.37727685,-1.0810169,80.418999)"
       aria-label="A">
      <path
         inkscape:connector-curvature="0"
         id="path9750-7"
         style="font-style:normal;font-variant:normal;font-weight:bold;font-stretch:normal;font-size:50.6667px;font-family:Raleway;-inkscape-font-specification:'Raleway Bold';fill:#000000;fill-opacity:1;stroke-width:3.97045"
         d="m 42.765397,25.79038 h 6.181334 l 13.68,35.973334 h -7.194667 l -3.344,-8.968 H 39.52273 l -3.293333,8.968 H 29.03473 Z m 8.056,22.090667 -4.965333,-14.136001 -5.168,14.136001 z" />
    </g>
    <g
       id="text4038"
       style="font-style:normal;font-weight:normal;font-size:59.5569px;line-height:1.25;font-family:sans-serif;letter-spacing:0px;word-spacing:0px;fill:#fafafa;fill-opacity:1;stroke:none;stroke-width:3.97045"
       transform="matrix(0.37273689,0,0,0.37727685,-1.0810172,79.41885)"
       aria-label="A">
      <path
         inkscape:connector-curvature="0"
         id="path9750"
         style="font-style:normal;font-variant:normal;font-weight:bold;font-stretch:normal;font-size:50.6667px;font-family:Raleway;-inkscape-font-specification:'Raleway Bold';fill:#fafafa;fill-opacity:1;stroke-width:3.97045"
         d="m 42.765397,25.79038 h 6.181334 l 13.68,35.973334 h -7.194667 l -3.344,-8.968 H 39.52273 l -3.293333,8.968 H 29.03473 Z m 8.056,22.090667 -4.965333,-14.136001 -5.168,14.136001 z" />
    </g>
    <g
       id="text4038-0-6"
       style="font-style:normal;font-weight:normal;font-size:59.5569px;line-height:1.25;font-family:sans-serif;letter-spacing:0px;word-spacing:0px;opacity:0.15;fill:#000000;fill-opacity:1;stroke:none;stroke-width:3.97045"
       transform="matrix(0.37273689,0,0,0.37727685,-1.0810169,80.418476)"
       aria-label="a">
      <path
         inkscape:connector-curvature="0"
         id="path9753-2"
         style="font-style:normal;font-variant:normal;font-weight:bold;font-stretch:normal;font-size:56px;font-family:Raleway;-inkscape-font-specification:'Raleway Bold';fill:#000000;fill-opacity:1;stroke-width:3.97045"
         d="m 85.834316,110.48529 q -2.128,0 -3.976,-0.672 -1.848,-0.728 -3.192,-1.96 -1.344,-1.288 -2.128,-2.968 -0.728,-1.68 -0.728,-3.696 0,-2.071997 0.896,-3.807997 0.952,-1.792 2.576,-3.024 1.68,-1.232 3.976,-1.904 2.296,-0.728 5.04,-0.728 1.96,0 3.808,0.336 1.904,0.336 3.36,0.952 v -1.68 q 0,-2.912 -1.68,-4.48 -1.624,-1.568 -4.872,-1.568 -2.352,0 -4.592,0.84 -2.24,0.84 -4.592,2.464 l -2.296,-4.76 q 5.656,-3.752 12.208,-3.752 6.328,0 9.8,3.136 3.528004,3.08 3.528004,8.96 v 9.127997 q 0,1.176 0.392,1.68 0.448,0.504 1.4,0.56 v 6.384 q -1.904,0.392 -3.304,0.392 -2.128004,0 -3.304004,-0.952 -1.12,-0.952 -1.4,-2.52 l -0.168,-1.624 q -1.96,2.576 -4.76,3.92 -2.8,1.344 -5.992,1.344 z m 2.128,-5.488 q 1.904,0 3.584,-0.672 1.736,-0.672 2.688,-1.792 1.232,-0.952 1.232,-2.128 v -3.359997 q -1.344,-0.504 -2.912,-0.784 -1.568,-0.336 -3.024,-0.336 -2.912,0 -4.76,1.344 -1.848,1.288 -1.848,3.303997 0,1.904 1.456,3.192 1.456,1.232 3.584,1.232 z" />
    </g>
    <g
       id="text4038-0"
       style="font-style:normal;font-weight:normal;font-size:59.5569px;line-height:1.25;font-family:sans-serif;letter-spacing:0px;word-spacing:0px;fill:#fafafa;fill-opacity:1;stroke:none;stroke-width:3.97045"
       transform="matrix(0.37273689,0,0,0.37727685,-1.0810172,79.41885)"
       aria-label="a">
      <path
         inkscape:connector-curvature="0"
         id="path9753"
         style="font-style:normal;font-variant:normal;font-weight:bold;font-stretch:normal;font-size:56px;font-family:Raleway;-inkscape-font-specification:'Raleway Bold';fill:#fafafa;fill-opacity:1;stroke-width:3.97045"
         d="m 85.834316,110.48529 q -2.128,0 -3.976,-0.672 -1.848,-0.728 -3.192,-1.96 -1.344,-1.288 -2.128,-2.968 -0.728,-1.68 -0.728,-3.696 0,-2.071997 0.896,-3.807997 0.952,-1.792 2.576,-3.024 1.68,-1.232 3.976,-1.904 2.296,-0.728 5.04,-0.728 1.96,0 3.808,0.336 1.904,0.336 3.36,0.952 v -1.68 q 0,-2.912 -1.68,-4.48 -1.624,-1.568 -4.872,-1.568 -2.352,0 -4.592,0.84 -2.24,0.84 -4.592,2.464 l -2.296,-4.76 q 5.656,-3.752 12.208,-3.752 6.328,0 9.8,3.136 3.528004,3.08 3.528004,8.96 v 9.127997 q 0,1.176 0.392,1.68 0.448,0.504 1.4,0.56 v 6.384 q -1.904,0.392 -3.304,0.392 -2.128004,0 -3.304004,-0.952 -1.12,-0.952 -1.4,-2.52 l -0.168,-1.624 q -1.96,2.576 -4.76,3.92 -2.8,1.344 -5.992,1.344 z m 2.128,-5.488 q 1.904,0 3.584,-0.672 1.736,-0.672 2.688,-1.792 1.232,-0.952 1.232,-2.128 v -3.359997 q -1.344,-0.504 -2.912,-0.784 -1.568,-0.336 -3.024,-0.336 -2.912,0 -4.76,1.344 -1.848,1.288 -1.848,3.303997 0,1.904 1.456,3.192 1.456,1.232 3.584,1.232 z" />
    </g>
    <g
       id="g1235"
       transform="matrix(0.375,0,0,0.375,0,80)"
       style="stroke-width:2.66667">
      <path
         id="path1231"
         d="m 70.642578,32.945312 a 4,4 0 0 0 -4,4 4,4 0 0 0 4,4 c 7.010583,0 12.609375,5.598793 12.609375,12.609376 a 4,4 0 0 0 4,4 4,4 0 0 0 4,-4 c 0,-11.334104 -9.275272,-20.609376 -20.609375,-20.609376 z"
         style="color:#000000;font-style:normal;font-variant:normal;font-weight:normal;font-stretch:normal;font-size:medium;line-height:normal;font-family:sans-serif;font-variant-ligatures:normal;font-variant-position:normal;font-variant-caps:normal;font-variant-numeric:normal;font-variant-alternates:normal;font-variant-east-asian:normal;font-feature-settings:normal;font-variation-settings:normal;text-indent:0;text-align:start;text-decoration:none;text-decoration-line:none;text-decoration-style:solid;text-decoration-color:#000000;letter-spacing:normal;word-spacing:normal;text-transform:none;writing-mode:lr-tb;direction:ltr;text-orientation:mixed;dominant-baseline:auto;baseline-shift:baseline;text-anchor:start;white-space:normal;shape-padding:0;shape-margin:0;inline-size:0;clip-rule:nonzero;display:inline;overflow:visible;visibility:visible;opacity:1;isolation:auto;mix-blend-mode:normal;color-interpolation:sRGB;color-interpolation-filters:linearRGB;solid-color:#000000;solid-opacity:1;vector-effect:none;fill:#fafafa;fill-opacity:1;fill-rule:nonzero;stroke:none;stroke-width:21.3333;stroke-linecap:round;stroke-linejoin:round;stroke-miterlimit:4;stroke-dasharray:none;stroke-dashoffset:0;stroke-opacity:1;color-rendering:auto;image-rendering:auto;shape-rendering:auto;text-rendering:auto;enable-background:accumulate;stop-color:#000000;stop-opacity:1" />
      <path
         inkscape:transform-center-x="3.8612188e-06"
         inkscape:original-d="M 102.69472,53.201003 H 71.184698 l 15.755014,17.401046 z"
         inkscape:path-effect="#path-effect1138"
         sodipodi:nodetypes="cccc"
         d="m 98.471469,53.201003 h -23.06352 a 1.8733446,1.8733446 113.92106 0 0 -1.388707,3.130688 l 10.085926,11.13967 a 3.823757,3.823757 179.99999 0 0 5.669088,-10e-7 l 10.08592,-11.139668 a 1.8733451,1.8733451 66.078937 0 0 -1.388707,-3.130689 z"
         inkscape:transform-center-y="2.8179107"
         style="fill:#fafafa;fill-opacity:1;stroke:none;stroke-width:26.6667;stroke-linecap:round;stroke-linejoin:round;stop-color:#000000"
         id="path1080" />
    </g>
    <g
       id="g1239"
       transform="matrix(0.375,0,0,0.375,0,80)"
       style="stroke-width:2.66667">
      <path
         transform="scale(-1)"
         id="path1227"
         d="m -58.402344,-105.29883 a 4,4 0 0 0 -4,4 4,4 0 0 0 4,4.000002 c 7.010582,0 12.607421,5.59684 12.607422,12.607422 a 4,4 0 0 0 4,4 4,4 0 0 0 4,-4 c -2e-6,-11.334102 -9.27332,-20.607424 -20.607422,-20.607424 z"
         style="color:#000000;font-style:normal;font-variant:normal;font-weight:normal;font-stretch:normal;font-size:medium;line-height:normal;font-family:sans-serif;font-variant-ligatures:normal;font-variant-position:normal;font-variant-caps:normal;font-variant-numeric:normal;font-variant-alternates:normal;font-variant-east-asian:normal;font-feature-settings:normal;font-variation-settings:normal;text-indent:0;text-align:start;text-decoration:none;text-decoration-line:none;text-decoration-style:solid;text-decoration-color:#000000;letter-spacing:normal;word-spacing:normal;text-transform:none;writing-mode:lr-tb;direction:ltr;text-orientation:mixed;dominant-baseline:auto;baseline-shift:baseline;text-anchor:start;white-space:normal;shape-padding:0;shape-margin:0;inline-size:0;clip-rule:nonzero;display:inline;overflow:visible;visibility:visible;opacity:1;isolation:auto;mix-blend-mode:normal;color-interpolation:sRGB;color-interpolation-filters:linearRGB;solid-color:#000000;solid-opacity:1;vector-effect:none;fill:#fafafa;fill-opacity:1;fill-rule:nonzero;stroke:none;stroke-width:21.3333;stroke-linecap:round;stroke-linejoin:round;stroke-miterlimit:4;stroke-dasharray:none;stroke-dashoffset:0;stroke-opacity:1;color-rendering:auto;image-rendering:auto;shape-rendering:auto;text-rendering:auto;enable-background:accumulate;stop-color:#000000;stop-opacity:1" />
      <path
         id="path1144"
         style="fill:#fafafa;fill-opacity:1;stroke:none;stroke-width:26.6667;stroke-linecap:round;stroke-linejoin:round;stop-color:#000000"
         inkscape:transform-center-y="-2.8179106"
         d="m 30.573806,85.044299 h 23.063516 a 1.8733446,1.8733446 113.92106 0 0 1.388707,-3.130688 L 44.940103,70.773941 a 3.8237565,3.8237565 179.99999 0 0 -5.669087,1e-6 L 29.185098,81.91361 a 1.8733454,1.8733454 66.078934 0 0 1.388708,3.130689 z"
         sodipodi:nodetypes="cccc"
         inkscape:path-effect="#path-effect1146"
         inkscape:original-d="M 26.350555,85.044299 H 57.860573 L 42.105559,67.643253 Z"
         inkscape:transform-center-x="-5.2923323e-06" />
    </g>
  </g>
</svg>
