<?xml version="1.0" encoding="UTF-8" standalone="no"?>
<svg
   xmlns:dc="http://purl.org/dc/elements/1.1/"
   xmlns:cc="http://creativecommons.org/ns#"
   xmlns:rdf="http://www.w3.org/1999/02/22-rdf-syntax-ns#"
   xmlns:svg="http://www.w3.org/2000/svg"
   xmlns="http://www.w3.org/2000/svg"
   xmlns:xlink="http://www.w3.org/1999/xlink"
   xmlns:sodipodi="http://sodipodi.sourceforge.net/DTD/sodipodi-0.dtd"
   xmlns:inkscape="http://www.inkscape.org/namespaces/inkscape"
   version="1.1"
   width="32"
   height="32"
   id="svg3049"
   sodipodi:docname="com.github.ryonakano.konbucase.svg"
   inkscape:version="1.0 (4035a4fb49, 2020-05-01)"
   inkscape:export-filename="/home/fatih/Documents/Github Stuff/konbucase/data/icons/128/com (copy).github.ryonakano.konbucase.png"
   inkscape:export-xdpi="96"
   inkscape:export-ydpi="96">
  <sodipodi:namedview
     pagecolor="#ffffff"
     bordercolor="#666666"
     borderopacity="1"
     objecttolerance="10"
     gridtolerance="10"
     guidetolerance="10"
     inkscape:pageopacity="0"
     inkscape:pageshadow="2"
     inkscape:window-width="1920"
     inkscape:window-height="1017"
     id="namedview48"
     showgrid="true"
     inkscape:zoom="18.340582"
     inkscape:cx="12.422782"
     inkscape:cy="25.436552"
     inkscape:window-x="0"
     inkscape:window-y="30"
     inkscape:window-maximized="1"
     inkscape:current-layer="layer2"
     inkscape:document-rotation="0"
     inkscape:snap-to-guides="false"
     inkscape:snap-grids="false"
     inkscape:object-paths="true"
     inkscape:snap-intersection-paths="true"
     inkscape:snap-smooth-nodes="true"
     inkscape:snap-page="true">
    <inkscape:grid
       type="xygrid"
       id="grid858"
       empspacing="4"
       originx="0"
       originy="0" />
    <inkscape:grid
       type="xygrid"
       id="grid860"
       empspacing="2"
       color="#ffef3f"
       opacity="0.2745098"
       empcolor="#ffef3f"
       empopacity="0.2745098"
       dotted="true"
       spacingx="0.5"
       spacingy="0.5"
       enabled="false"
       originx="0"
       originy="0" />
  </sodipodi:namedview>
  <defs
     id="defs3051">
    <inkscape:path-effect
       update_on_knot_move="true"
       attempt_force_join="true"
       miter_limit="4"
       offset="-1"
       unit="px"
       linejoin_type="miter"
       lpeversion="1"
       is_visible="true"
       id="path-effect1027"
       effect="offset" />
    <inkscape:path-effect
       hide_knots="false"
       only_selected="false"
       apply_with_radius="true"
       apply_no_radius="true"
       use_knot_distance="true"
       flexible="false"
       chamfer_steps="1"
       radius="0"
       mode="F"
       method="auto"
       unit="px"
       satellites_param="F,0,1,1,0,4.2232513,0,1 @ F,0,0,1,0,4.2232513,0,1 @ F,0,1,1,0,4.2232513,0,1"
       lpeversion="1"
       is_visible="true"
       id="path-effect1152"
       effect="fillet_chamfer" />
    <inkscape:path-effect
       hide_knots="false"
       only_selected="false"
       apply_with_radius="true"
       apply_no_radius="true"
       use_knot_distance="true"
       flexible="false"
       chamfer_steps="1"
       radius="0"
       mode="F"
       method="auto"
       unit="px"
       satellites_param="F,0,1,1,0,4.2232513,0,1 @ F,0,0,1,0,4.2232513,0,1 @ F,0,1,1,0,4.2232513,0,1"
       lpeversion="1"
       is_visible="true"
       id="path-effect1146"
       effect="fillet_chamfer" />
    <inkscape:path-effect
       effect="fillet_chamfer"
       id="path-effect1138"
       is_visible="true"
       lpeversion="1"
       satellites_param="F,0,1,1,0,4.2232513,0,1 @ F,0,0,1,0,4.2232513,0,1 @ F,0,1,1,0,4.2232513,0,1"
       unit="px"
       method="auto"
       mode="F"
       radius="0"
       chamfer_steps="1"
       flexible="false"
       use_knot_distance="true"
       apply_no_radius="true"
       apply_with_radius="true"
       only_selected="false"
       hide_knots="false" />
    <inkscape:path-effect
       effect="fillet_chamfer"
       id="path-effect1136"
       is_visible="true"
       lpeversion="1"
       satellites_param="F,0,0,1,0,0,0,1 @ F,0,0,1,0,0,0,1 @ F,0,0,1,0,0,0,1"
       unit="px"
       method="auto"
       mode="F"
       radius="0"
       chamfer_steps="1"
       flexible="false"
       use_knot_distance="true"
       apply_no_radius="true"
       apply_with_radius="true"
       only_selected="false"
       hide_knots="false" />
    <inkscape:path-effect
       effect="fillet_chamfer"
       id="path-effect1131"
       is_visible="true"
       lpeversion="1"
       satellites_param="F,0,0,1,0,0,0,1 @ F,0,0,1,0,0,0,1 @ F,0,0,1,0,0,0,1 @ F,0,0,1,0,0,0,1 @ F,0,0,1,0,0,0,1 @ F,0,0,1,0,0,0,1"
       unit="px"
       method="auto"
       mode="F"
       radius="0"
       chamfer_steps="1"
       flexible="false"
       use_knot_distance="true"
       apply_no_radius="true"
       apply_with_radius="true"
       only_selected="false"
       hide_knots="false" />
    <marker
       inkscape:stockid="Arrow2Send"
       orient="auto"
       refY="0"
       refX="0"
       id="marker6817"
       style="overflow:visible"
       inkscape:isstock="true">
      <path
         id="path6815"
         style="fill:#fafafa;fill-opacity:1;fill-rule:evenodd;stroke:#fafafa;stroke-width:0.625;stroke-linejoin:round;stroke-opacity:1"
         d="M 8.7185878,4.0337352 -2.2072895,0.01601326 8.7185884,-4.0017078 c -1.7454984,2.3720609 -1.7354408,5.6174519 -6e-7,8.035443 z"
         transform="matrix(-0.3,0,0,-0.3,0.69,0)" />
    </marker>
    <marker
       inkscape:stockid="Arrow1Send"
       orient="auto"
       refY="0"
       refX="0"
       id="Arrow1Send"
       style="overflow:visible"
       inkscape:isstock="true">
      <path
         id="path4864"
         d="M 0,0 5,-5 -12.5,0 5,5 Z"
         style="fill:#000000;fill-opacity:1;fill-rule:evenodd;stroke:#000000;stroke-width:1pt;stroke-opacity:1"
         transform="matrix(-0.2,0,0,-0.2,-1.2,0)" />
    </marker>
    <marker
       inkscape:stockid="TriangleInS"
       orient="auto"
       refY="0"
       refX="0"
       id="TriangleInS"
       style="overflow:visible"
       inkscape:isstock="true">
      <path
         id="path4988"
         d="M 5.77,0 -2.88,5 V -5 Z"
         style="fill:#000000;fill-opacity:1;fill-rule:evenodd;stroke:#000000;stroke-width:1pt;stroke-opacity:1"
         transform="scale(-0.2)" />
    </marker>
    <marker
       inkscape:stockid="DiamondSend"
       orient="auto"
       refY="0"
       refX="0"
       id="DiamondSend"
       style="overflow:visible"
       inkscape:isstock="true">
      <path
         id="path4952"
         d="M 0,-7.0710768 -7.0710894,0 0,7.0710589 7.0710462,0 Z"
         style="fill:#000000;fill-opacity:1;fill-rule:evenodd;stroke:#000000;stroke-width:1pt;stroke-opacity:1"
         transform="matrix(0.2,0,0,0.2,-1.2,0)" />
    </marker>
    <marker
       inkscape:stockid="Arrow2Send"
       orient="auto"
       refY="0"
       refX="0"
       id="Arrow2Send"
       style="overflow:visible"
       inkscape:isstock="true">
      <path
         id="path4882"
         style="fill:#000000;fill-opacity:1;fill-rule:evenodd;stroke:#000000;stroke-width:0.625;stroke-linejoin:round;stroke-opacity:1"
         d="M 8.7185878,4.0337352 -2.2072895,0.01601326 8.7185884,-4.0017078 c -1.7454984,2.3720609 -1.7354408,5.6174519 -6e-7,8.035443 z"
         transform="matrix(-0.3,0,0,-0.3,0.69,0)" />
    </marker>
    <marker
       inkscape:stockid="Arrow2Mend"
       orient="auto"
       refY="0"
       refX="0"
       id="marker5311"
       style="overflow:visible"
       inkscape:isstock="true">
      <path
         id="path5309"
         style="fill:#000000;fill-opacity:1;fill-rule:evenodd;stroke:#000000;stroke-width:0.625;stroke-linejoin:round;stroke-opacity:1"
         d="M 8.7185878,4.0337352 -2.2072895,0.01601326 8.7185884,-4.0017078 c -1.7454984,2.3720609 -1.7354408,5.6174519 -6e-7,8.035443 z"
         transform="scale(-0.6)" />
    </marker>
    <marker
       inkscape:stockid="Arrow2Sstart"
       orient="auto"
       refY="0"
       refX="0"
       id="Arrow2Sstart"
       style="overflow:visible"
       inkscape:isstock="true">
      <path
         id="path4879"
         style="fill:#000000;fill-opacity:1;fill-rule:evenodd;stroke:#000000;stroke-width:0.625;stroke-linejoin:round;stroke-opacity:1"
         d="M 8.7185878,4.0337352 -2.2072895,0.01601326 8.7185884,-4.0017078 c -1.7454984,2.3720609 -1.7354408,5.6174519 -6e-7,8.035443 z"
         transform="matrix(0.3,0,0,0.3,-0.69,0)" />
    </marker>
    <marker
       inkscape:stockid="Arrow2Mend"
       orient="auto"
       refY="0"
       refX="0"
       id="Arrow2Mend"
       style="overflow:visible"
       inkscape:isstock="true">
      <path
         id="path4876"
         style="fill:#000000;fill-opacity:1;fill-rule:evenodd;stroke:#000000;stroke-width:0.625;stroke-linejoin:round;stroke-opacity:1"
         d="M 8.7185878,4.0337352 -2.2072895,0.01601326 8.7185884,-4.0017078 c -1.7454984,2.3720609 -1.7354408,5.6174519 -6e-7,8.035443 z"
         transform="scale(-0.6)" />
    </marker>
    <marker
       inkscape:stockid="Arrow2Lend"
       orient="auto"
       refY="0"
       refX="0"
       id="Arrow2Lend"
       style="overflow:visible"
       inkscape:isstock="true">
      <path
         id="path4870"
         style="fill:#000000;fill-opacity:1;fill-rule:evenodd;stroke:#000000;stroke-width:0.625;stroke-linejoin:round;stroke-opacity:1"
         d="M 8.7185878,4.0337352 -2.2072895,0.01601326 8.7185884,-4.0017078 c -1.7454984,2.3720609 -1.7354408,5.6174519 -6e-7,8.035443 z"
         transform="matrix(-1.1,0,0,-1.1,-1.1,0)" />
    </marker>
    <marker
       inkscape:stockid="Arrow1Lend"
       orient="auto"
       refY="0"
       refX="0"
       id="marker5145"
       style="overflow:visible"
       inkscape:isstock="true">
      <path
         id="path5143"
         d="M 0,0 5,-5 -12.5,0 5,5 Z"
         style="fill:#000000;fill-opacity:1;fill-rule:evenodd;stroke:#000000;stroke-width:1pt;stroke-opacity:1"
         transform="matrix(-0.8,0,0,-0.8,-10,0)" />
    </marker>
    <marker
       inkscape:stockid="Arrow1Lend"
       orient="auto"
       refY="0"
       refX="0"
       id="Arrow1Lend"
       style="overflow:visible"
       inkscape:isstock="true">
      <path
         id="path4852"
         d="M 0,0 5,-5 -12.5,0 5,5 Z"
         style="fill:#000000;fill-opacity:1;fill-rule:evenodd;stroke:#000000;stroke-width:1pt;stroke-opacity:1"
         transform="matrix(-0.8,0,0,-0.8,-10,0)" />
    </marker>
    <linearGradient
       id="linearGradient897">
      <stop
         id="stop893"
         style="stop-color:#f9c440;stop-opacity:1"
         offset="0" />
      <stop
         offset="0.54600441"
         style="stop-color:#e8ac2c;stop-opacity:1;"
         id="stop1015" />
      <stop
         id="stop895"
         style="stop-color:#d48e15;stop-opacity:1"
         offset="1" />
    </linearGradient>
    <linearGradient
       id="linearGradient3924">
      <stop
         id="stop3926"
         style="stop-color:#ffffff;stop-opacity:1"
         offset="0" />
      <stop
         id="stop3928"
         style="stop-color:#ffffff;stop-opacity:0.23529412"
         offset="0.06316455" />
      <stop
         id="stop3930"
         style="stop-color:#ffffff;stop-opacity:0.15686275"
         offset="0.95056331" />
      <stop
         id="stop3932"
         style="stop-color:#ffffff;stop-opacity:0.39215687"
         offset="1" />
    </linearGradient>
    <linearGradient
       id="linearGradient3688-166-749-5">
      <stop
         id="stop2883-0"
         style="stop-color:#181818;stop-opacity:1"
         offset="0" />
      <stop
         id="stop2885-5"
         style="stop-color:#181818;stop-opacity:0"
         offset="1" />
    </linearGradient>
    <linearGradient
       id="linearGradient3688-464-309-8">
      <stop
         id="stop2889-9"
         style="stop-color:#181818;stop-opacity:1"
         offset="0" />
      <stop
         id="stop2891-4"
         style="stop-color:#181818;stop-opacity:0"
         offset="1" />
    </linearGradient>
    <linearGradient
       id="linearGradient3702-501-757-0">
      <stop
         id="stop2895-0"
         style="stop-color:#181818;stop-opacity:0"
         offset="0" />
      <stop
         id="stop2897-2"
         style="stop-color:#181818;stop-opacity:1"
         offset="0.5" />
      <stop
         id="stop2899-6"
         style="stop-color:#181818;stop-opacity:0"
         offset="1" />
    </linearGradient>
    <linearGradient
       id="linearGradient3811">
      <stop
         id="stop3813"
         style="stop-color:#000000;stop-opacity:1"
         offset="0" />
      <stop
         id="stop3815"
         style="stop-color:#000000;stop-opacity:0"
         offset="1" />
    </linearGradient>
    <radialGradient
       xlink:href="#linearGradient3688-166-749-5"
       id="radialGradient3946"
       gradientUnits="userSpaceOnUse"
       gradientTransform="matrix(1.9740983,0,0,1.4,28.210531,-17.402531)"
       cx="4.9929786"
       cy="43.5"
       fx="4.9929786"
       fy="43.5"
       r="2.5" />
    <radialGradient
       xlink:href="#linearGradient3688-464-309-8"
       id="radialGradient3948"
       gradientUnits="userSpaceOnUse"
       gradientTransform="matrix(1.9740983,0,0,1.4,-19.789474,-104.39747)"
       cx="4.9929786"
       cy="43.5"
       fx="4.9929786"
       fy="43.5"
       r="2.5" />
    <linearGradient
       xlink:href="#linearGradient3702-501-757-0"
       id="linearGradient3950"
       gradientUnits="userSpaceOnUse"
       x1="25.058096"
       y1="47.027729"
       x2="25.058096"
       y2="39.999443"
       gradientTransform="matrix(1.005291,0,0,1,-0.12698188,-0.00253193)" />
    <linearGradient
       xlink:href="#linearGradient3924"
       id="linearGradient3965"
       gradientUnits="userSpaceOnUse"
       gradientTransform="matrix(0.68243247,0,0,0.68243247,-0.37837938,96.37208)"
       x1="23.99999"
       y1="4.999989"
       x2="23.99999"
       y2="43" />
    <radialGradient
       xlink:href="#linearGradient3811"
       id="radialGradient3976"
       gradientUnits="userSpaceOnUse"
       gradientTransform="matrix(0.3890981,0,0,0.04244707,17.567589,121.53289)"
       cx="-4.0287771"
       cy="93.467628"
       fx="-4.0287771"
       fy="93.467628"
       r="35.338131" />
    <linearGradient
       xlink:href="#linearGradient897"
       id="linearGradient891"
       x1="66.534019"
       y1="8.3008251"
       x2="66.071373"
       y2="166.23401"
       gradientUnits="userSpaceOnUse"
       gradientTransform="matrix(0.25,0,0,0.25,0,96.000001)" />
    <linearGradient
       id="linearGradient5803">
      <stop
         id="stop5805"
         style="stop-color:#fff5ef;stop-opacity:1"
         offset="0" />
      <stop
         id="stop5807"
         style="stop-color:#fef8dd;stop-opacity:1"
         offset="1" />
    </linearGradient>
    <linearGradient
       x1="167.98311"
       y1="8.50811"
       x2="167.98311"
       y2="54.780239"
       id="linearGradient5228-5"
       xlink:href="#linearGradient5803"
       gradientUnits="userSpaceOnUse"
       gradientTransform="matrix(1.832495,0,0,1.8439152,-232.17581,8.558593)" />
    <marker
       inkscape:stockid="Arrow2Send"
       orient="auto"
       refY="0"
       refX="0"
       id="marker6817-8"
       style="overflow:visible"
       inkscape:isstock="true">
      <path
         inkscape:connector-curvature="0"
         id="path6815-5"
         style="fill:#fafafa;fill-opacity:1;fill-rule:evenodd;stroke:#fafafa;stroke-width:0.625;stroke-linejoin:round;stroke-opacity:1"
         d="M 8.7185878,4.0337352 -2.2072895,0.01601326 8.7185884,-4.0017078 c -1.7454984,2.3720609 -1.7354408,5.6174519 -6e-7,8.035443 z"
         transform="matrix(-0.3,0,0,-0.3,0.69,0)" />
    </marker>
    <linearGradient
       y2="43"
       x2="23.99999"
       y1="4.999989"
       x1="23.99999"
       gradientTransform="matrix(0.68243247,0,0,0.68243247,-3.2533765,-3.2533701)"
       gradientUnits="userSpaceOnUse"
       id="linearGradient3965-3"
       xlink:href="#linearGradient3924" />
  </defs>
  <metadata
     id="metadata3054">
    <rdf:RDF>
      <cc:Work
         rdf:about="">
        <dc:format>image/svg+xml</dc:format>
        <dc:type
           rdf:resource="http://purl.org/dc/dcmitype/StillImage" />
        <dc:title></dc:title>
      </cc:Work>
    </rdf:RDF>
  </metadata>
  <g
     inkscape:groupmode="layer"
     id="layer4"
     inkscape:label="Layer 4"
     style="display:none"
     transform="translate(0,-96)">
    <rect
       style="fill:#000000;fill-opacity:0.15;stroke:none;stroke-width:2;stroke-linecap:round;stroke-linejoin:round;stroke-opacity:0.07;stop-color:#000000"
       id="rect1017"
       width="32"
       height="32"
       x="0"
       y="96" />
  </g>
  <g
     inkscape:groupmode="layer"
     id="layer1"
     inkscape:label="Layer 1"
     style="display:inline"
     transform="translate(0,-96)">
    <path
       style="color:#000000;display:inline;overflow:visible;visibility:visible;opacity:0.2;fill:url(#radialGradient3976);fill-opacity:1;fill-rule:nonzero;stroke:none;stroke-width:1;marker:none;enable-background:accumulate"
       id="path3041"
       d="m 29.75,125.50032 a 13.75,1.5 0 0 1 -27.4999994,0 13.75,1.5 0 1 1 27.4999994,0 z"
       inkscape:connector-curvature="0" />
    <g
       style="display:inline;stroke-width:4.00001"
       id="g2036"
       transform="matrix(0.67499973,0,0,0.13888902,-0.20000187,120.09812)">
      <g
         style="opacity:0.4;stroke-width:4.00001"
         id="g3712"
         transform="matrix(1.052632,0,0,1.285713,-1.263158,-13.42854)">
        <rect
           style="fill:url(#radialGradient3946);fill-opacity:1;stroke:none;stroke-width:4.00001"
           id="rect2801"
           y="39.997467"
           x="38.074078"
           height="7"
           width="4.9259257" />
        <rect
           style="fill:url(#radialGradient3948);fill-opacity:1;stroke:none;stroke-width:4.00001"
           id="rect3696"
           transform="scale(-1)"
           y="-46.997467"
           x="-9.9259281"
           height="7"
           width="4.9259257" />
        <rect
           style="fill:url(#linearGradient3950);fill-opacity:1;stroke:none;stroke-width:4.00001"
           id="rect3700"
           y="39.997467"
           x="9.9259281"
           height="7.0000005"
           width="28.148148" />
      </g>
    </g>
  </g>
  <g
     inkscape:groupmode="layer"
     id="layer2"
     inkscape:label="Layer 2"
     style="display:inline"
     transform="translate(0,-96)">
    <rect
       style="color:#000000;display:inline;overflow:visible;visibility:visible;fill:url(#linearGradient891);fill-opacity:1;fill-rule:nonzero;stroke:none;stroke-width:1;marker:none;enable-background:accumulate"
       id="rect5505-21-3"
       y="99.87545"
       x="3.1249971"
       ry="1.51375"
       rx="1.51375"
       height="25.75"
       width="25.75" />
    <rect
       style="color:#000000;display:inline;overflow:visible;visibility:visible;opacity:0.5;fill:none;stroke:#ad5f00;stroke-width:1;stroke-linecap:round;stroke-linejoin:round;stroke-miterlimit:4;stroke-dasharray:none;stroke-dashoffset:0;stroke-opacity:1;marker:none;enable-background:accumulate"
       id="rect5505-21-3-1"
       y="99.87545"
       x="3.1249971"
       ry="1.51375"
       rx="1.51375"
       height="25.75"
       width="25.75" />
    <path
       sodipodi:type="rect"
       d="M 4.6386719,100.875 C 4.3534615,100.875 4.125,101.10346 4.125,101.38867 v 22.72266 c 0,0.28521 0.2284615,0.51367 0.5136719,0.51367 H 27.361328 c 0.285211,0 0.513672,-0.22846 0.513672,-0.51367 v -22.72266 c 0,-0.28521 -0.228461,-0.51367 -0.513672,-0.51367 z"
       inkscape:path-effect="#path-effect1027"
       width="25.75"
       height="25.75"
       rx="1.51375"
       ry="1.51375"
       x="3.1249971"
       y="99.87545"
       id="rect1013"
       style="color:#000000;font-variation-settings:normal;display:inline;overflow:visible;visibility:visible;opacity:0.5;vector-effect:none;fill:none;fill-opacity:1;stroke:url(#linearGradient3965);stroke-width:1;stroke-linecap:round;stroke-linejoin:round;stroke-miterlimit:4;stroke-dasharray:none;stroke-dashoffset:0;stroke-opacity:1;marker:none;enable-background:accumulate;stop-color:#000000;stop-opacity:1" />
  </g>
  <g
     inkscape:groupmode="layer"
     id="layer3"
     inkscape:label="Layer 3"
     style="display:inline"
     transform="translate(0,-96)">
    <path
       d="m 14.600737,123.32433 a 1,1 0 0 0 1,-1 1,1 0 0 0 -1,-1 c -1.722786,0 -3.101367,-1.3533 -3.14795,-3.06396 h 1.956544 a 0.46833615,0.46833615 0 0 0 0.347168,-0.78272 l -2.521484,-2.78466 a 0.95593927,0.95593927 0 0 0 -1.4169916,0 l -2.5214847,2.78466 a 0.46833628,0.46833628 0 0 0 0.3471673,0.78272 h 1.8071294 c 0.047787,2.79306 2.3460016,5.06396 5.1499016,5.06396 z"
       style="color:#000000;font-style:normal;font-variant:normal;font-weight:normal;font-stretch:normal;font-size:medium;line-height:normal;font-family:sans-serif;font-variant-ligatures:normal;font-variant-position:normal;font-variant-caps:normal;font-variant-numeric:normal;font-variant-alternates:normal;font-variant-east-asian:normal;font-feature-settings:normal;font-variation-settings:normal;text-indent:0;text-align:start;text-decoration:none;text-decoration-line:none;text-decoration-style:solid;text-decoration-color:#000000;letter-spacing:normal;word-spacing:normal;text-transform:none;writing-mode:lr-tb;direction:ltr;text-orientation:mixed;dominant-baseline:auto;baseline-shift:baseline;text-anchor:start;white-space:normal;shape-padding:0;shape-margin:0;inline-size:0;clip-rule:nonzero;display:inline;overflow:visible;visibility:visible;opacity:1;isolation:auto;mix-blend-mode:normal;color-interpolation:sRGB;color-interpolation-filters:linearRGB;solid-color:#000000;solid-opacity:1;vector-effect:none;fill:#000000;fill-opacity:0.15;fill-rule:nonzero;stroke:#000000;stroke-width:1;stroke-linecap:round;stroke-linejoin:round;stroke-miterlimit:4;stroke-dasharray:none;stroke-dashoffset:0;stroke-opacity:0.07;color-rendering:auto;image-rendering:auto;shape-rendering:auto;text-rendering:auto;enable-background:accumulate;stop-color:#000000;stop-opacity:1"
       id="path1170" />
    <path
       id="path1157"
       style="color:#000000;font-style:normal;font-variant:normal;font-weight:normal;font-stretch:normal;font-size:medium;line-height:normal;font-family:sans-serif;font-variant-ligatures:normal;font-variant-position:normal;font-variant-caps:normal;font-variant-numeric:normal;font-variant-alternates:normal;font-variant-east-asian:normal;font-feature-settings:normal;font-variation-settings:normal;text-indent:0;text-align:start;text-decoration:none;text-decoration-line:none;text-decoration-style:solid;text-decoration-color:#000000;letter-spacing:normal;word-spacing:normal;text-transform:none;writing-mode:lr-tb;direction:ltr;text-orientation:mixed;dominant-baseline:auto;baseline-shift:baseline;text-anchor:start;white-space:normal;shape-padding:0;shape-margin:0;inline-size:0;clip-rule:nonzero;display:inline;overflow:visible;visibility:visible;opacity:1;isolation:auto;mix-blend-mode:normal;color-interpolation:sRGB;color-interpolation-filters:linearRGB;solid-color:#000000;solid-opacity:1;vector-effect:none;fill:#000000;fill-opacity:0.15;fill-rule:nonzero;stroke:#000000;stroke-width:1;stroke-linecap:round;stroke-linejoin:round;stroke-miterlimit:4;stroke-dasharray:none;stroke-dashoffset:0;stroke-opacity:0.07;color-rendering:auto;image-rendering:auto;shape-rendering:auto;text-rendering:auto;enable-background:accumulate;stop-color:#000000;stop-opacity:1"
       d="m 17.660785,105.23643 a 1,1 0 0 0 -1,1 1,1 0 0 0 1,1 c 1.722786,0 3.101367,1.3533 3.14795,3.06397 h -1.956544 a 0.46833615,0.46833615 0 0 0 -0.347168,0.78271 l 2.521484,2.78467 a 0.95593927,0.95593927 0 0 0 1.416992,0 l 2.521484,-2.78467 a 0.46833628,0.46833628 0 0 0 -0.347167,-0.78271 h -1.807129 c -0.04779,-2.79305 -2.346002,-5.06397 -5.149902,-5.06397 z" />
    <g
       id="text4038-6-0"
       style="font-style:normal;font-weight:normal;font-size:59.5569px;line-height:1.25;font-family:sans-serif;letter-spacing:0px;word-spacing:0px;opacity:0.07;fill:#000000;fill-opacity:1;stroke:#000000;stroke-width:5.95568;stroke-opacity:1"
       transform="matrix(0.24849126,0,0,0.2515179,-0.72067793,96.612341)"
       aria-label="A">
      <path
         inkscape:connector-curvature="0"
         id="path9750-7-9"
         style="font-style:normal;font-variant:normal;font-weight:bold;font-stretch:normal;font-size:50.6667px;font-family:Raleway;-inkscape-font-specification:'Raleway Bold';fill:#000000;fill-opacity:1;stroke:#000000;stroke-width:5.95568;stroke-opacity:1"
         d="m 42.765397,25.79038 h 6.181334 l 13.68,35.973334 h -7.194667 l -3.344,-8.968 H 39.52273 l -3.293333,8.968 H 29.03473 Z m 8.056,22.090667 -4.965333,-14.136001 -5.168,14.136001 z" />
    </g>
    <g
       id="text4038-0-6-6"
       style="font-style:normal;font-weight:normal;font-size:59.5569px;line-height:1.25;font-family:sans-serif;letter-spacing:0px;word-spacing:0px;opacity:0.07;fill:#000000;fill-opacity:1;stroke:#000000;stroke-width:5.95568;stroke-opacity:1"
       transform="matrix(0.24849126,0,0,0.2515179,-0.72067793,96.611992)"
       aria-label="a">
      <path
         inkscape:connector-curvature="0"
         id="path9753-2-2"
         style="font-style:normal;font-variant:normal;font-weight:bold;font-stretch:normal;font-size:56px;font-family:Raleway;-inkscape-font-specification:'Raleway Bold';fill:#000000;fill-opacity:1;stroke:#000000;stroke-width:5.95568;stroke-opacity:1"
         d="m 85.834316,110.48529 q -2.128,0 -3.976,-0.672 -1.848,-0.728 -3.192,-1.96 -1.344,-1.288 -2.128,-2.968 -0.728,-1.68 -0.728,-3.696 0,-2.071997 0.896,-3.807997 0.952,-1.792 2.576,-3.024 1.68,-1.232 3.976,-1.904 2.296,-0.728 5.04,-0.728 1.96,0 3.808,0.336 1.904,0.336 3.36,0.952 v -1.68 q 0,-2.912 -1.68,-4.48 -1.624,-1.568 -4.872,-1.568 -2.352,0 -4.592,0.84 -2.24,0.84 -4.592,2.464 l -2.296,-4.76 q 5.656,-3.752 12.208,-3.752 6.328,0 9.8,3.136 3.528004,3.08 3.528004,8.96 v 9.127997 q 0,1.176 0.392,1.68 0.448,0.504 1.4,0.56 v 6.384 q -1.904,0.392 -3.304,0.392 -2.128004,0 -3.304004,-0.952 -1.12,-0.952 -1.4,-2.52 l -0.168,-1.624 q -1.96,2.576 -4.76,3.92 -2.8,1.344 -5.992,1.344 z m 2.128,-5.488 q 1.904,0 3.584,-0.672 1.736,-0.672 2.688,-1.792 1.232,-0.952 1.232,-2.128 v -3.359997 q -1.344,-0.504 -2.912,-0.784 -1.568,-0.336 -3.024,-0.336 -2.912,0 -4.76,1.344 -1.848,1.288 -1.848,3.303997 0,1.904 1.456,3.192 1.456,1.232 3.584,1.232 z" />
    </g>
    <g
       id="text4038-6"
       style="font-style:normal;font-weight:normal;font-size:59.5569px;line-height:1.25;font-family:sans-serif;letter-spacing:0px;word-spacing:0px;opacity:0.15;fill:#000000;fill-opacity:1;stroke:none;stroke-width:5.95568"
       transform="matrix(0.24849126,0,0,0.2515179,-0.72067793,96.61234)"
       aria-label="A">
      <path
         inkscape:connector-curvature="0"
         id="path9750-7"
         style="font-style:normal;font-variant:normal;font-weight:bold;font-stretch:normal;font-size:50.6667px;font-family:Raleway;-inkscape-font-specification:'Raleway Bold';fill:#000000;fill-opacity:1;stroke-width:5.95568"
         d="m 42.765397,25.79038 h 6.181334 l 13.68,35.973334 h -7.194667 l -3.344,-8.968 H 39.52273 l -3.293333,8.968 H 29.03473 Z m 8.056,22.090667 -4.965333,-14.136001 -5.168,14.136001 z" />
    </g>
    <g
       id="text4038"
       style="font-style:normal;font-weight:normal;font-size:59.5569px;line-height:1.25;font-family:sans-serif;letter-spacing:0px;word-spacing:0px;fill:#fafafa;fill-opacity:1;stroke:none;stroke-width:5.95568"
       transform="matrix(0.24849126,0,0,0.2515179,-0.72067813,95.612567)"
       aria-label="A">
      <path
         inkscape:connector-curvature="0"
         id="path9750"
         style="font-style:normal;font-variant:normal;font-weight:bold;font-stretch:normal;font-size:50.6667px;font-family:Raleway;-inkscape-font-specification:'Raleway Bold';fill:#fafafa;fill-opacity:1;stroke-width:5.95568"
         d="m 42.765397,25.79038 h 6.181334 l 13.68,35.973334 h -7.194667 l -3.344,-8.968 H 39.52273 l -3.293333,8.968 H 29.03473 Z m 8.056,22.090667 -4.965333,-14.136001 -5.168,14.136001 z" />
    </g>
    <g
       id="text4038-0-6"
       style="font-style:normal;font-weight:normal;font-size:59.5569px;line-height:1.25;font-family:sans-serif;letter-spacing:0px;word-spacing:0px;opacity:0.15;fill:#000000;fill-opacity:1;stroke:none;stroke-width:5.95568"
       transform="matrix(0.24849126,0,0,0.2515179,-0.72067793,96.611991)"
       aria-label="a">
      <path
         inkscape:connector-curvature="0"
         id="path9753-2"
         style="font-style:normal;font-variant:normal;font-weight:bold;font-stretch:normal;font-size:56px;font-family:Raleway;-inkscape-font-specification:'Raleway Bold';fill:#000000;fill-opacity:1;stroke-width:5.95568"
         d="m 85.834316,110.48529 q -2.128,0 -3.976,-0.672 -1.848,-0.728 -3.192,-1.96 -1.344,-1.288 -2.128,-2.968 -0.728,-1.68 -0.728,-3.696 0,-2.071997 0.896,-3.807997 0.952,-1.792 2.576,-3.024 1.68,-1.232 3.976,-1.904 2.296,-0.728 5.04,-0.728 1.96,0 3.808,0.336 1.904,0.336 3.36,0.952 v -1.68 q 0,-2.912 -1.68,-4.48 -1.624,-1.568 -4.872,-1.568 -2.352,0 -4.592,0.84 -2.24,0.84 -4.592,2.464 l -2.296,-4.76 q 5.656,-3.752 12.208,-3.752 6.328,0 9.8,3.136 3.528004,3.08 3.528004,8.96 v 9.127997 q 0,1.176 0.392,1.68 0.448,0.504 1.4,0.56 v 6.384 q -1.904,0.392 -3.304,0.392 -2.128004,0 -3.304004,-0.952 -1.12,-0.952 -1.4,-2.52 l -0.168,-1.624 q -1.96,2.576 -4.76,3.92 -2.8,1.344 -5.992,1.344 z m 2.128,-5.488 q 1.904,0 3.584,-0.672 1.736,-0.672 2.688,-1.792 1.232,-0.952 1.232,-2.128 v -3.359997 q -1.344,-0.504 -2.912,-0.784 -1.568,-0.336 -3.024,-0.336 -2.912,0 -4.76,1.344 -1.848,1.288 -1.848,3.303997 0,1.904 1.456,3.192 1.456,1.232 3.584,1.232 z" />
    </g>
    <g
       id="text4038-0"
       style="font-style:normal;font-weight:normal;font-size:59.5569px;line-height:1.25;font-family:sans-serif;letter-spacing:0px;word-spacing:0px;fill:#fafafa;fill-opacity:1;stroke:none;stroke-width:5.95568"
       transform="matrix(0.24849126,0,0,0.2515179,-0.72067813,95.612567)"
       aria-label="a">
      <path
         inkscape:connector-curvature="0"
         id="path9753"
         style="font-style:normal;font-variant:normal;font-weight:bold;font-stretch:normal;font-size:56px;font-family:Raleway;-inkscape-font-specification:'Raleway Bold';fill:#fafafa;fill-opacity:1;stroke-width:5.95568"
         d="m 85.834316,110.48529 q -2.128,0 -3.976,-0.672 -1.848,-0.728 -3.192,-1.96 -1.344,-1.288 -2.128,-2.968 -0.728,-1.68 -0.728,-3.696 0,-2.071997 0.896,-3.807997 0.952,-1.792 2.576,-3.024 1.68,-1.232 3.976,-1.904 2.296,-0.728 5.04,-0.728 1.96,0 3.808,0.336 1.904,0.336 3.36,0.952 v -1.68 q 0,-2.912 -1.68,-4.48 -1.624,-1.568 -4.872,-1.568 -2.352,0 -4.592,0.84 -2.24,0.84 -4.592,2.464 l -2.296,-4.76 q 5.656,-3.752 12.208,-3.752 6.328,0 9.8,3.136 3.528004,3.08 3.528004,8.96 v 9.127997 q 0,1.176 0.392,1.68 0.448,0.504 1.4,0.56 v 6.384 q -1.904,0.392 -3.304,0.392 -2.128004,0 -3.304004,-0.952 -1.12,-0.952 -1.4,-2.52 l -0.168,-1.624 q -1.96,2.576 -4.76,3.92 -2.8,1.344 -5.992,1.344 z m 2.128,-5.488 q 1.904,0 3.584,-0.672 1.736,-0.672 2.688,-1.792 1.232,-0.952 1.232,-2.128 v -3.359997 q -1.344,-0.504 -2.912,-0.784 -1.568,-0.336 -3.024,-0.336 -2.912,0 -4.76,1.344 -1.848,1.288 -1.848,3.303997 0,1.904 1.456,3.192 1.456,1.232 3.584,1.232 z" />
    </g>
    <g
       id="g1235"
       transform="matrix(0.25,0,0,0.25,0,96)"
       style="stroke-width:4.00001">
      <path
         id="path1231"
         d="m 70.642578,32.945312 a 4,4 0 0 0 -4,4 4,4 0 0 0 4,4 c 7.010583,0 12.609375,5.598793 12.609375,12.609376 a 4,4 0 0 0 4,4 4,4 0 0 0 4,-4 c 0,-11.334104 -9.275272,-20.609376 -20.609375,-20.609376 z"
         style="color:#000000;font-style:normal;font-variant:normal;font-weight:normal;font-stretch:normal;font-size:medium;line-height:normal;font-family:sans-serif;font-variant-ligatures:normal;font-variant-position:normal;font-variant-caps:normal;font-variant-numeric:normal;font-variant-alternates:normal;font-variant-east-asian:normal;font-feature-settings:normal;font-variation-settings:normal;text-indent:0;text-align:start;text-decoration:none;text-decoration-line:none;text-decoration-style:solid;text-decoration-color:#000000;letter-spacing:normal;word-spacing:normal;text-transform:none;writing-mode:lr-tb;direction:ltr;text-orientation:mixed;dominant-baseline:auto;baseline-shift:baseline;text-anchor:start;white-space:normal;shape-padding:0;shape-margin:0;inline-size:0;clip-rule:nonzero;display:inline;overflow:visible;visibility:visible;opacity:1;isolation:auto;mix-blend-mode:normal;color-interpolation:sRGB;color-interpolation-filters:linearRGB;solid-color:#000000;solid-opacity:1;vector-effect:none;fill:#fafafa;fill-opacity:1;fill-rule:nonzero;stroke:none;stroke-width:32;stroke-linecap:round;stroke-linejoin:round;stroke-miterlimit:4;stroke-dasharray:none;stroke-dashoffset:0;stroke-opacity:1;color-rendering:auto;image-rendering:auto;shape-rendering:auto;text-rendering:auto;enable-background:accumulate;stop-color:#000000;stop-opacity:1" />
      <path
         inkscape:transform-center-x="3.8612188e-06"
         inkscape:original-d="M 102.69472,53.201003 H 71.184698 l 15.755014,17.401046 z"
         inkscape:path-effect="#path-effect1138"
         sodipodi:nodetypes="cccc"
         d="m 98.471469,53.201003 h -23.06352 a 1.8733446,1.8733446 113.92106 0 0 -1.388707,3.130688 l 10.085926,11.13967 a 3.823757,3.823757 179.99999 0 0 5.669088,-10e-7 l 10.08592,-11.139668 a 1.8733451,1.8733451 66.078937 0 0 -1.388707,-3.130689 z"
         inkscape:transform-center-y="2.8179107"
         style="fill:#fafafa;fill-opacity:1;stroke:none;stroke-width:40;stroke-linecap:round;stroke-linejoin:round;stop-color:#000000"
         id="path1080" />
    </g>
    <g
       id="g1239"
       transform="matrix(0.25,0,0,0.25,0,96)"
       style="stroke-width:4.00001">
      <path
         transform="scale(-1)"
         id="path1227"
         d="m -58.402344,-105.29883 a 4,4 0 0 0 -4,4 4,4 0 0 0 4,4.000002 c 7.010582,0 12.607421,5.59684 12.607422,12.607422 a 4,4 0 0 0 4,4 4,4 0 0 0 4,-4 c -2e-6,-11.334102 -9.27332,-20.607424 -20.607422,-20.607424 z"
         style="color:#000000;font-style:normal;font-variant:normal;font-weight:normal;font-stretch:normal;font-size:medium;line-height:normal;font-family:sans-serif;font-variant-ligatures:normal;font-variant-position:normal;font-variant-caps:normal;font-variant-numeric:normal;font-variant-alternates:normal;font-variant-east-asian:normal;font-feature-settings:normal;font-variation-settings:normal;text-indent:0;text-align:start;text-decoration:none;text-decoration-line:none;text-decoration-style:solid;text-decoration-color:#000000;letter-spacing:normal;word-spacing:normal;text-transform:none;writing-mode:lr-tb;direction:ltr;text-orientation:mixed;dominant-baseline:auto;baseline-shift:baseline;text-anchor:start;white-space:normal;shape-padding:0;shape-margin:0;inline-size:0;clip-rule:nonzero;display:inline;overflow:visible;visibility:visible;opacity:1;isolation:auto;mix-blend-mode:normal;color-interpolation:sRGB;color-interpolation-filters:linearRGB;solid-color:#000000;solid-opacity:1;vector-effect:none;fill:#fafafa;fill-opacity:1;fill-rule:nonzero;stroke:none;stroke-width:32;stroke-linecap:round;stroke-linejoin:round;stroke-miterlimit:4;stroke-dasharray:none;stroke-dashoffset:0;stroke-opacity:1;color-rendering:auto;image-rendering:auto;shape-rendering:auto;text-rendering:auto;enable-background:accumulate;stop-color:#000000;stop-opacity:1" />
      <path
         id="path1144"
         style="fill:#fafafa;fill-opacity:1;stroke:none;stroke-width:40;stroke-linecap:round;stroke-linejoin:round;stop-color:#000000"
         inkscape:transform-center-y="-2.8179106"
         d="m 30.573806,85.044299 h 23.063516 a 1.8733446,1.8733446 113.92106 0 0 1.388707,-3.130688 L 44.940103,70.773941 a 3.8237565,3.8237565 179.99999 0 0 -5.669087,1e-6 L 29.185098,81.91361 a 1.8733454,1.8733454 66.078934 0 0 1.388708,3.130689 z"
         sodipodi:nodetypes="cccc"
         inkscape:path-effect="#path-effect1146"
         inkscape:original-d="M 26.350555,85.044299 H 57.860573 L 42.105559,67.643253 Z"
         inkscape:transform-center-x="-5.2923323e-06" />
    </g>
  </g>
</svg>
